<?xml version="1.0" standalone="no"?>
<!DOCTYPE svg PUBLIC "-//W3C//DTD SVG 20010904//EN"
 "http://www.w3.org/TR/2001/REC-SVG-20010904/DTD/svg10.dtd">
<svg version="1.0" xmlns="http://www.w3.org/2000/svg"
 width="1011.000000pt" height="645.000000pt" viewBox="0 0 1011.000000 645.000000"
 preserveAspectRatio="xMidYMid meet">
<metadata>
Created by potrace 1.13, written by Peter Selinger 2001-2015
</metadata>
<g transform="translate(0.000000,645.000000) scale(0.100000,-0.100000)"
fill="#000000" stroke="none">
<path d="M10100 3230 l0 -3220 -5052 -3 -5053 -2 5058 -3 5057 -2 0 3225 c0
1774 -2 3225 -5 3225 -3 0 -5 -1449 -5 -3220z"/>
<path d="M2479 4060 c-9 -5 -38 -9 -63 -7 -39 2 -46 0 -46 -16 0 -23 -37 -36
-72 -26 -16 4 -28 4 -28 -1 0 -11 26 -20 61 -20 42 0 60 -19 39 -40 -12 -12
-35 -17 -78 -17 -51 -1 -62 2 -67 18 -4 11 -12 16 -21 12 -9 -3 -28 4 -44 16
-21 15 -37 19 -59 15 -35 -7 -42 -24 -11 -24 11 0 20 -4 20 -10 0 -5 -6 -10
-14 -10 -27 0 -28 -20 -2 -30 16 -6 26 -17 26 -30 0 -26 -27 -37 -46 -18 -14
14 -74 13 -74 -1 0 -15 60 -51 84 -51 14 0 28 -5 31 -10 4 -6 10 -8 15 -5 13
8 33 -23 26 -41 -4 -11 -17 -15 -50 -13 -25 2 -51 -3 -59 -10 -9 -7 -28 -16
-44 -21 -22 -6 -12 -8 43 -9 76 -1 112 -17 101 -44 -5 -14 -20 -16 -102 -12
-53 3 -100 7 -105 10 -12 8 -41 -6 -34 -16 3 -5 9 -7 14 -4 13 8 30 -19 20
-34 -5 -10 -18 -12 -41 -7 l-34 6 28 -24 c16 -14 34 -27 40 -30 8 -3 7 -8 -3
-15 -13 -10 -13 -12 0 -20 8 -5 27 -7 42 -4 19 4 28 1 28 -7 0 -13 20 -11 100
10 25 7 53 12 63 12 10 -1 30 3 44 9 25 9 71 0 115 -22 29 -15 48 -10 48 11 0
12 14 34 31 51 17 17 36 47 41 67 6 20 19 43 29 50 15 10 17 21 13 55 -6 55 4
68 59 73 52 5 97 19 97 32 0 4 -9 15 -20 25 -19 16 -18 47 1 47 5 0 9 7 9 15
0 8 -4 15 -10 15 -5 0 -10 11 -10 25 0 31 -25 33 -75 5 -38 -21 -79 -19 -89 6
-7 17 18 42 50 50 13 3 24 10 24 15 0 12 -21 11 -41 -1z"/>
</g>
</svg>
